<svg fill="none" viewBox="0 0 63 82" width="35.93" height="32" xmlns="http://www.w3.org/2000/svg"><path d="m62 1v12.5605c-.1175.0533-.2315.1139-.3413.1815l-11.4519 7.3215c-6.1436 3.928-12.2822 7.8537-18.4161 11.7769-.0813.0653-.1825.101-.2868.101-.1044 0-.2056-.0357-.2869-.101-4.8945-3.1444-9.8059-6.2839-14.7343-9.4186l-4.6693-2.9823c-.0872-.0581-.1816-.1016-.3268-.1814v11.131c0 .4572-.0654.3556.3413.6168l19.3601 12.3719.1815.1161c.032.0285.0733.0443.1162.0443s.0843-.0158.1162-.0443c.0655-.0344.1286-.0732.1888-.1161l16.1141-10.3111 7.6031-4.869 6.4921-4.165v36.4843l-1.859 1.161-16.0778 10.2893-12.0837 7.7279-.4938.3048-.2759-.1814-6.3614-4.0635-23.53566-15.0277c-.09648-.0423-.17791-.1127-.23363-.202-.05572-.0894-.083126-.1935-.07863-.2986 0-3.9523 0-7.9069 0-11.864 0-.0871 0-.1741 0-.312l.29047.1669 29.77355 19.0476.3559.225c.0331.0258.074.0399.1161.0399.0422 0 .083-.0141.1162-.0399l.1889-.1234 6.4049-4.0925 7.4143-4.7093 5.657-3.6281c.0825-.0384.152-.1.1998-.1774.0477-.0774.0717-.1671.0689-.258 0-3.6572 0-7.3167 0-10.9787 0-.0871 0-.1741 0-.312-.1307.0653-.2251.1016-.305.1524l-10.8928 6.9442-8.6706 5.5655-.2614.1524-.2469-.1524-29.77361-19.0476c-.4575-.2975-.39941-.1451-.39941-.7256v-35.55558c0-.08708 0-.1669 0-.25397 0-.08708 0-.1161.03631-.21043l.29048.17415 18.44513 11.82043 11.4664 7.3505c.0699.0566.157.0875.2469.0875s.1771-.0309.2469-.0875l8.9176-5.7106 9.4839-6.05897 11.5682-7.42313c.0944-.05805.1743-.13787.2614-.2322z" stroke="#fff" stroke-miterlimit="10" stroke-width=".7"/><g fill="#fff"><path d="m31.5002 68.5338c-.0303.0118-.064.0118-.0944 0l-.3558-.2249-29.73728-19.0839-.29047-.1669v.312c-.00968 3.9571-.01695 7.9093-.02179 11.8567-.003011.104.0251.2065.08073.2944.05562.0879.13624.1572.23153.199l23.53568 15.0422 6.3614 4.0562.2759.1669z"/><path d="m19.8087 13.0744-18.44512-11.82038-.31952-.19591c0 .09433 0 .15238-.03631.21043v35.78776c0 .6023-.058091.4499.39941.7256l29.80264 19.0912.2469.1451h.0436v-12.4807c-.0475.0024-.0942-.0131-.1308-.0436l-.1815-.1161-19.3601-12.3718c-.4067-.2613-.3413-.1597-.3413-.6168v-11.1311c.1452.0798.2396.1234.3268.1814l4.6694 2.9823c4.9186 3.1396 9.8301 6.2839 14.7342 9.4331.0822.0604.1813.0934.2833.0944v-12.43c-.0813-.0137-.1584-.046-.2252-.0943z"/></g></svg>